<?xml version="1.0" standalone="no"?>
<!DOCTYPE svg PUBLIC "-//W3C//DTD SVG 20010904//EN"
 "http://www.w3.org/TR/2001/REC-SVG-20010904/DTD/svg10.dtd">
<svg version="1.0" xmlns="http://www.w3.org/2000/svg"
 width="1024.000000pt" height="1024.000000pt" viewBox="0 0 1024.000000 1024.000000"
 preserveAspectRatio="xMidYMid meet">
<metadata>
Created by potrace 1.16, written by Peter Selinger 2001-2019
</metadata>
<g transform="translate(0.000000,1024.000000) scale(0.100000,-0.100000)"
fill="#000000" stroke="none">
<path d="M5080 7474 c326 -21 357 -25 540 -61 224 -44 534 -170 740 -301 52
-33 189 -130 200 -142 3 -3 41 -35 85 -72 90 -74 209 -195 276 -278 24 -30 46
-57 50 -60 24 -21 151 -221 210 -330 106 -200 159 -348 213 -600 50 -233 57
-610 15 -832 -7 -37 -15 -66 -18 -64 -3 2 -6 -10 -7 -27 -1 -38 -12 -101 -25
-142 -5 -16 -14 -49 -19 -72 -6 -24 -15 -43 -21 -43 -6 0 -7 6 -2 13 13 21 14
49 1 64 -6 8 -7 13 -2 12 21 -4 26 2 14 16 -11 13 -10 14 5 9 15 -6 17 -3 13
14 -4 12 -2 20 3 16 5 -3 9 9 9 26 0 18 -4 29 -10 25 -17 -11 -11 7 8 21 13
10 14 15 5 25 -9 9 -9 17 -1 32 9 17 8 19 -6 14 -10 -4 -14 -3 -11 3 3 5 -3
15 -15 22 -11 7 -20 17 -20 22 0 5 11 -1 24 -13 23 -22 24 -22 29 -2 2 11 2
22 -1 26 -3 3 -6 19 -7 35 -1 21 3 30 14 30 11 0 12 -3 4 -11 -14 -14 -5 -49
13 -49 8 0 14 10 13 23 0 21 -1 21 -9 2 -6 -15 -8 -8 -7 23 1 38 3 41 14 26
12 -16 13 -16 11 8 -2 29 -24 31 -43 5 -13 -18 -35 -23 -35 -8 0 6 5 13 10 16
14 9 2 27 -13 19 -7 -3 -3 2 7 10 11 9 24 16 30 16 6 0 6 3 1 9 -16 14 -74 21
-80 10 -4 -5 -15 -7 -25 -4 -11 3 -20 0 -24 -10 -3 -9 -11 -13 -17 -9 -8 4 -9
3 -5 -4 11 -18 -10 -14 -25 4 -11 14 -10 18 6 30 17 12 17 14 2 14 -9 0 -17
-4 -17 -10 0 -22 -21 -8 -34 23 -8 17 -15 26 -15 18 -1 -11 -5 -10 -16 5 -9
11 -14 13 -13 5 3 -15 -39 -23 -48 -9 -8 12 7 32 15 21 3 -6 14 -2 25 8 18 18
18 18 -14 9 -18 -5 -37 -7 -41 -4 -5 3 -6 -2 -2 -11 5 -15 3 -15 -16 -4 -11 8
-21 17 -21 21 0 5 -4 8 -8 8 -5 0 -9 -7 -9 -14 0 -8 3 -15 6 -14 21 2 31 -4
25 -14 -4 -6 -3 -8 3 -5 17 11 44 -16 33 -33 -8 -12 -10 -12 -10 5 -1 18 -1
19 -11 2 -5 -9 -7 -21 -4 -27 6 -10 -49 -43 -58 -34 -3 3 -3 13 -1 22 3 10 -2
6 -11 -8 -8 -14 -15 -18 -14 -10 3 29 -1 41 -11 35 -5 -3 -10 -2 -10 3 0 5 -7
9 -16 9 -14 0 -14 -2 2 -14 10 -7 22 -13 27 -13 5 0 4 -7 -3 -15 -7 -8 -24
-15 -39 -14 -23 0 -24 1 -6 9 22 10 22 10 -20 15 -17 3 -23 1 -14 -3 9 -4 15
-19 15 -37 -1 -28 -3 -30 -38 -28 -21 1 -38 -3 -38 -8 0 -16 70 -15 80 1 3 5
11 1 17 -9 10 -15 7 -18 -21 -19 -56 -2 -75 -6 -69 -15 2 -4 18 -6 34 -3 16 2
29 0 29 -5 0 -14 17 -11 34 6 8 8 21 15 28 15 8 0 18 4 24 9 5 5 17 1 28 -10
12 -11 15 -19 7 -19 -7 0 -9 -4 -6 -10 3 -6 -4 -10 -17 -10 -17 0 -20 -2 -9
-9 14 -9 28 -8 74 4 21 5 21 5 0 -6 -13 -7 -23 -16 -23 -21 0 -5 5 -6 10 -3 6
3 10 2 10 -4 0 -6 7 -8 15 -5 8 4 12 10 9 15 -8 13 10 11 24 -3 10 -10 12 -8
10 11 -2 19 2 24 20 26 13 1 28 8 33 16 6 9 9 10 9 2 0 -7 -8 -16 -17 -22 -10
-5 -17 -12 -15 -15 8 -20 0 -27 -12 -10 -14 19 -14 19 -13 -1 1 -11 -3 -19
-10 -18 -7 2 -13 -2 -13 -9 0 -6 -3 -8 -6 -5 -14 14 -42 -15 -49 -50 l-8 -38
-9 33 c-9 33 -15 37 -33 24 -21 -15 -16 -34 7 -27 16 4 19 3 10 -3 -8 -5 -13
-12 -13 -16 3 -22 -1 -33 -12 -33 -8 0 -14 6 -14 14 0 7 5 13 11 13 5 0 1 7
-10 15 -13 10 -15 14 -5 15 11 0 10 4 -3 19 -11 12 -14 21 -7 26 17 10 13 21
-13 39 -16 10 -27 12 -31 6 -4 -6 -1 -9 7 -8 7 2 12 -3 10 -11 -2 -8 3 -11 13
-8 8 4 15 2 15 -3 0 -13 -27 -13 -35 0 -3 6 -12 10 -18 10 -7 0 -6 -4 3 -10 8
-5 11 -10 5 -10 -5 0 1 -9 15 -20 19 -14 22 -22 14 -30 -9 -9 -14 -9 -19 1 -5
8 -4 10 3 5 7 -4 12 -2 12 3 0 10 -6 12 -27 10 -11 -1 -3 -33 10 -41 7 -4 18
-6 25 -3 6 2 12 0 12 -5 0 -6 -6 -10 -14 -10 -8 0 -16 -6 -19 -12 -4 -10 -7
-10 -18 0 -10 9 -10 12 0 12 7 0 9 5 6 10 -11 18 -44 -7 -38 -29 4 -17 12 -19
51 -16 25 3 42 2 38 -2 -4 -4 -23 -8 -43 -10 -26 -1 -44 5 -65 22 -23 20 -33
23 -49 15 -20 -11 -26 -30 -10 -30 6 0 12 4 16 10 9 14 33 1 31 -18 -1 -11 8
-18 22 -20 24 -4 29 -17 10 -28 -7 -5 -8 -3 -3 6 6 9 4 11 -5 5 -7 -4 -16 -2
-21 6 -4 7 -11 11 -14 7 -4 -3 4 -16 17 -28 l23 -22 -22 11 c-13 6 -23 16 -23
21 0 6 -7 10 -16 10 -10 0 -14 -6 -11 -14 4 -10 1 -13 -7 -10 -23 9 -7 42 16
36 15 -3 19 -1 16 9 -3 8 -11 14 -19 15 -31 2 -36 5 -36 19 0 8 5 12 11 9 6
-3 -2 6 -17 20 -15 14 -33 26 -40 26 -7 0 -6 -4 3 -10 8 -5 11 -10 5 -11 -5 0
1 -4 14 -8 l23 -6 -21 -25 c-20 -25 -20 -25 -21 -3 0 12 -4 24 -9 27 -4 3 -6
-5 -4 -18 4 -17 -2 -28 -19 -40 -13 -9 -24 -12 -26 -6 -2 5 -8 10 -14 10 -6 0
-8 -7 -5 -15 4 -8 2 -17 -2 -19 -12 -8 -42 28 -44 52 0 11 -5 19 -9 16 -4 -3
-3 -16 2 -30 6 -14 8 -30 4 -35 -3 -5 4 -9 15 -9 13 0 21 -7 21 -17 0 -15 2
-16 10 -3 6 9 10 11 10 3 0 -8 7 -10 18 -6 15 6 15 5 4 -10 -17 -20 -6 -41 17
-32 13 5 13 4 4 -6 -10 -10 -17 -9 -33 6 -11 10 -20 13 -20 7 0 -7 -4 -12 -10
-12 -5 0 -10 11 -10 24 0 14 -6 28 -12 32 -7 4 -10 4 -6 0 7 -9 -21 -46 -35
-46 -5 0 -2 11 7 25 15 23 15 26 1 31 -12 5 -13 10 -4 20 6 7 8 18 4 24 -10
16 -35 12 -35 -6 0 -11 -6 -14 -22 -10 -13 3 -17 3 -10 0 15 -7 16 -25 0 -22
-6 2 -17 -7 -23 -19 -9 -17 -14 -20 -23 -11 -9 9 -13 4 -18 -20 -4 -18 -10
-32 -15 -32 -5 0 -9 -6 -9 -14 0 -8 -4 -16 -9 -18 -5 -1 -2 -9 6 -17 12 -11
14 -11 12 0 -3 29 2 38 19 33 13 -4 14 -3 4 4 -11 7 -11 10 2 15 9 4 16 2 16
-3 0 -6 14 -10 31 -10 18 0 28 -4 24 -10 -4 -6 -11 -7 -17 -4 -7 5 -8 2 -4 -5
10 -15 -23 -41 -41 -34 -9 4 -11 0 -7 -11 7 -19 16 -20 32 -4 9 9 13 7 18 -6
4 -11 1 -22 -7 -27 -8 -5 -10 -9 -5 -9 5 0 3 -7 -4 -15 -15 -18 1 -20 18 -3 9
9 12 9 12 -3 0 -12 2 -12 11 1 9 13 10 13 6 0 -4 -16 -87 -24 -87 -8 0 4 -3 7
-7 6 -15 -3 -63 14 -63 23 0 5 -8 9 -17 9 -17 -1 -17 -1 0 -11 22 -13 14 -29
-12 -22 -10 3 -22 -1 -26 -7 -11 -17 8 -31 25 -19 13 9 12 10 -2 5 -10 -3 -18
-1 -18 5 0 18 35 5 38 -15 2 -11 0 -16 -6 -12 -6 3 -13 2 -17 -4 -3 -5 -15
-10 -26 -10 -29 0 -22 -41 9 -51 8 -3 20 -20 28 -39 12 -31 12 -33 -1 -16 -8
11 -15 14 -15 8 0 -10 -3 -10 -14 0 -9 8 -11 17 -5 24 6 8 2 10 -16 6 -25 -4
-35 12 -12 21 9 4 9 6 -1 6 -7 1 -11 5 -8 10 4 5 -2 8 -11 6 -29 -6 -29 -6 -8
-15 15 -7 12 -9 -15 -6 -19 2 -37 5 -40 5 -2 1 11 12 30 25 19 13 38 22 42 20
4 -2 10 0 13 6 4 6 1 9 -6 8 -7 -2 -13 2 -14 9 0 6 -4 15 -9 20 -5 5 -6 3 -2
-4 4 -8 1 -13 -8 -13 -10 0 -13 6 -10 18 5 16 5 16 -9 0 -8 -10 -17 -16 -21
-13 -3 3 -2 -1 4 -7 14 -17 13 -31 -3 -25 -6 2 -19 -3 -27 -11 -13 -14 -12
-15 3 -9 9 3 17 2 17 -4 0 -5 -7 -12 -15 -15 -8 -4 -15 -12 -15 -20 0 -17 12
-18 26 -4 8 8 15 6 24 -5 7 -8 18 -15 24 -15 6 0 4 5 -4 10 -11 7 -12 10 -2
10 12 0 49 -29 40 -31 -22 -6 -58 -2 -58 5 0 6 -5 5 -12 -2 -8 -8 -8 -15 0
-24 6 -8 7 -19 3 -27 -6 -9 -11 -10 -15 -2 -4 6 -4 16 -1 21 3 6 1 10 -4 10
-6 0 -11 8 -11 18 0 14 -2 15 -9 2 -6 -8 -8 -17 -5 -21 2 -4 -8 -9 -21 -12
-18 -3 -30 2 -40 17 -8 11 -15 15 -15 8 0 -6 -4 -12 -10 -12 -5 0 -10 6 -10
14 0 8 -5 18 -12 22 -7 5 -8 3 -3 -6 6 -9 2 -10 -16 -5 -21 7 -22 6 -10 -8 7
-9 18 -15 24 -14 7 1 11 -4 10 -10 -2 -7 5 -13 15 -14 11 0 12 -2 4 -6 -7 -3
-19 1 -28 7 -8 7 -17 10 -21 6 -3 -3 -16 2 -27 11 -12 10 -18 14 -14 9 4 -5 2
-16 -5 -24 -10 -13 -9 -15 11 -10 15 4 22 2 22 -8 0 -8 7 -14 17 -14 15 0 15
-1 0 -18 -21 -23 -21 -32 -1 -32 9 0 12 5 8 13 -6 9 -5 9 7 0 12 -10 19 -8 33
9 10 12 19 32 19 45 l0 23 18 -21 c25 -29 25 -59 -1 -60 -33 -2 -38 -4 -46
-12 -4 -4 -18 -7 -32 -7 -20 0 -23 -4 -19 -21 4 -15 2 -18 -7 -10 -9 7 -16 7
-24 -1 -9 -9 -12 -9 -12 0 0 7 6 15 14 18 9 4 14 18 13 39 -2 31 -3 32 -19 18
-17 -16 -15 -39 3 -28 5 4 9 2 9 -3 0 -6 -7 -12 -15 -16 -8 -3 -15 -12 -15
-21 0 -8 -4 -15 -10 -15 -5 0 -7 8 -3 18 7 18 5 17 -17 -12 -10 -13 -10 -17
-2 -12 7 4 14 1 18 -8 3 -8 14 -13 25 -11 11 2 17 0 14 -6 -4 -5 -1 -9 6 -9 7
0 9 8 6 21 -5 17 -3 19 6 10 9 -9 9 -16 -1 -32 -7 -11 -10 -24 -7 -29 3 -5 0
-12 -6 -16 -8 -4 -9 -3 -5 4 4 7 1 12 -9 12 -9 0 -14 -4 -11 -9 3 -5 -1 -14
-9 -21 -8 -7 -15 -9 -16 -4 0 5 -2 17 -4 27 -2 13 1 17 11 13 8 -3 14 -1 14 5
0 6 5 7 10 4 6 -3 10 -1 10 5 0 8 -11 9 -32 5 -25 -5 -29 -4 -18 4 13 10 13
12 0 21 -20 13 -33 8 -40 -16 -4 -15 -13 -19 -38 -18 -32 1 -40 -15 -12 -24 8
-3 10 0 5 8 -5 8 -3 11 6 8 18 -6 24 -37 9 -52 -9 -8 -11 -7 -8 3 2 8 -6 17
-17 19 -17 4 -18 2 -6 -12 12 -14 12 -16 -3 -10 -13 5 -15 2 -10 -12 4 -11 10
-23 14 -29 10 -14 8 -45 -2 -39 -5 3 -7 13 -6 21 2 9 -5 17 -15 19 -13 2 -17
-2 -13 -13 5 -13 4 -14 -9 -3 -12 10 -18 10 -32 -1 -15 -11 -14 -10 1 9 11 12
28 22 38 22 11 0 16 5 13 10 -4 6 -10 8 -15 5 -5 -3 -12 0 -16 6 -4 7 -3 9 3
6 6 -4 16 0 23 8 7 8 9 16 4 16 -38 6 -71 2 -82 -11 -8 -8 -11 -9 -7 -2 3 6 1
12 -5 12 -6 0 -8 5 -5 10 4 6 11 7 17 4 7 -5 9 2 4 20 -4 18 -3 25 4 21 5 -3
10 -1 10 4 0 6 8 11 17 11 13 0 14 3 5 12 -7 7 -12 19 -12 28 0 12 2 13 9 1 5
-7 14 -10 20 -7 6 4 11 0 11 -9 0 -9 5 -13 10 -10 6 4 8 10 5 15 -3 5 -1 11 5
15 5 3 10 -2 10 -11 0 -10 3 -15 6 -11 4 3 4 13 1 21 -5 13 -12 14 -32 6 -24
-9 -26 -8 -19 12 6 21 6 21 -11 5 -14 -14 -20 -15 -32 -6 -11 10 -11 14 -1 20
10 7 9 9 -4 9 -10 0 -18 -7 -18 -15 0 -8 4 -15 10 -15 5 0 6 -7 3 -17 -4 -10
-2 -14 4 -10 6 4 13 1 16 -7 3 -8 -1 -17 -9 -20 -8 -3 -17 1 -20 9 -9 21 -27
19 -20 -2 6 -17 5 -17 -8 -1 -12 17 -14 17 -31 -2 -14 -16 -16 -23 -7 -32 9
-9 12 -6 12 12 1 22 2 23 11 7 6 -9 14 -15 19 -12 5 3 12 0 16 -6 4 -7 3 -9
-4 -5 -7 4 -9 -9 -7 -39 1 -25 -1 -48 -6 -51 -5 -3 -6 1 -3 9 3 8 0 18 -7 23
-7 4 -10 3 -5 -4 3 -6 2 -13 -3 -16 -6 -4 -8 7 -6 25 4 25 2 29 -9 20 -10 -8
-22 -8 -40 -1 -23 8 -25 13 -16 29 14 28 13 31 -14 29 -14 -1 -22 -6 -20 -10
3 -4 12 -4 20 -1 13 5 14 2 6 -13 -5 -10 -8 -27 -7 -36 3 -14 -4 -18 -26 -18
-21 0 -29 5 -29 18 0 14 -2 15 -10 2 -5 -8 -15 -15 -22 -15 -7 0 -14 -10 -16
-22 -3 -21 11 -29 41 -24 5 1 6 -3 2 -9 -10 -17 7 -11 22 8 13 15 13 15 3 -5
-6 -13 -16 -23 -22 -23 -5 0 -8 -9 -5 -20 3 -12 1 -18 -5 -14 -5 3 -8 15 -5
25 3 10 2 18 -2 17 -21 -2 -41 3 -37 11 3 4 -3 16 -14 26 -18 16 -20 16 -45
-11 -15 -16 -25 -22 -23 -14 2 8 -3 14 -9 13 -7 -2 -13 2 -13 7 0 6 -12 10
-27 10 -26 -1 -27 -1 -8 -13 11 -6 24 -12 29 -12 5 0 11 -5 13 -12 3 -9 -4
-10 -25 -4 -16 5 -35 5 -42 1 -9 -6 -4 -9 15 -12 16 -2 30 -10 32 -18 3 -9 1
-11 -4 -5 -12 15 -42 12 -54 -5 -8 -13 -9 -13 -7 2 2 9 -1 17 -7 17 -5 0 -12
8 -16 18 -7 17 -8 17 -8 0 -1 -15 -4 -16 -21 -7 -12 6 -18 16 -14 23 4 7 -1 5
-12 -4 -10 -9 -25 -14 -33 -12 -10 4 -11 0 -6 -17 5 -17 4 -21 -5 -15 -9 6
-11 4 -5 -5 5 -9 14 -4 31 16 13 16 23 23 24 17 0 -7 -4 -13 -10 -13 -5 0 -10
-5 -10 -11 0 -5 4 -8 9 -5 5 3 12 -1 15 -9 4 -12 2 -13 -13 -5 -14 7 -21 6
-24 -3 -5 -15 -37 9 -37 28 0 8 -6 15 -12 18 -10 3 -10 7 1 20 9 11 10 17 2
18 -6 1 -15 2 -21 3 -13 1 -13 21 -1 21 5 0 13 4 18 8 4 5 -6 8 -22 6 -17 -2
-36 0 -43 4 -14 9 -14 9 -17 -20 -2 -18 1 -21 15 -13 13 7 21 5 30 -5 7 -8 16
-12 21 -9 5 3 9 1 9 -5 0 -6 -17 -9 -41 -7 -31 3 -39 0 -35 -10 7 -17 -6 -18
-22 -2 -21 21 -13 -2 8 -25 12 -12 16 -23 11 -25 -6 -2 -7 -12 -2 -26 12 -31
-9 -57 -39 -49 -18 5 -21 3 -15 -8 6 -11 5 -12 -5 -2 -16 15 -10 23 19 26 14
1 17 5 11 11 -12 12 -13 27 -2 23 9 -3 11 8 5 32 -3 13 -12 18 -24 16 -22 -5
-26 10 -4 19 8 3 15 10 15 16 0 6 -7 4 -16 -5 -10 -9 -25 -14 -35 -12 -10 3
-20 -2 -23 -10 -4 -11 -2 -13 9 -9 8 3 15 1 15 -5 0 -6 9 -9 20 -7 10 2 18 -1
17 -7 -1 -5 -8 -9 -14 -7 -7 2 -13 -1 -13 -6 0 -6 -7 -13 -16 -16 -8 -3 -12
-2 -9 4 13 20 -14 9 -29 -12 -19 -27 -20 -38 -3 -34 6 1 9 1 4 -1 -4 -3 -5 -9
-1 -14 9 -16 -13 -10 -27 8 -16 18 -16 19 14 53 19 21 19 22 2 9 -11 -9 -26
-18 -32 -20 -10 -3 -9 -11 2 -33 18 -33 19 -39 5 -31 -16 10 -12 -11 5 -25 11
-9 14 -22 10 -40 -5 -21 -1 -29 17 -38 16 -7 18 -11 7 -11 -25 -1 -41 24 -33
53 3 14 2 26 -3 26 -6 0 -15 12 -22 26 -9 21 -14 24 -26 14 -11 -9 -15 -10
-15 -1 0 7 -4 9 -10 6 -18 -11 -11 -34 10 -30 11 2 23 -1 26 -7 4 -7 2 -8 -4
-4 -7 4 -12 2 -12 -4 0 -7 -6 -10 -12 -7 -7 2 -18 -3 -25 -12 -9 -12 -10 -5
-8 34 2 28 8 50 13 50 6 0 13 3 17 7 4 4 14 0 22 -8 9 -8 18 -12 22 -8 3 4 0
9 -7 11 -6 3 -9 10 -6 15 4 7 2 8 -4 4 -7 -4 -12 -1 -12 6 0 9 -3 9 -10 -2 -5
-8 -13 -16 -17 -16 -28 -5 -52 -18 -47 -25 3 -5 9 -7 13 -5 4 3 8 -1 8 -9 0
-10 -4 -12 -12 -5 -7 5 -16 6 -20 2 -5 -4 -5 -1 -1 6 4 6 3 12 -3 12 -13 0 -8
24 9 46 14 17 13 18 -1 7 -9 -7 -18 -11 -20 -9 -2 2 -10 -2 -17 -10 -9 -10 -9
-14 -1 -14 6 0 9 -9 6 -20 -3 -13 -1 -18 5 -13 7 4 8 1 3 -6 -4 -7 -17 -10
-30 -7 -19 5 -23 2 -22 -14 1 -17 8 -20 34 -18 20 1 32 7 29 13 -2 7 2 12 10
12 9 0 13 -6 10 -14 -3 -8 -1 -11 4 -8 20 12 9 -24 -16 -54 -14 -16 -24 -32
-22 -35 2 -2 0 -8 -4 -12 -5 -4 -8 2 -8 14 0 12 9 26 20 32 21 11 28 40 9 40
-5 0 -7 -5 -3 -12 4 -6 3 -8 -3 -5 -6 4 -14 0 -17 -8 -7 -20 -48 -35 -63 -23
-7 6 -13 4 -17 -4 -3 -7 -3 -2 0 11 4 16 2 21 -5 17 -7 -5 -9 -1 -5 8 3 9 10
14 15 11 8 -6 32 66 24 74 -3 2 -8 -10 -11 -27 -4 -18 -10 -29 -15 -26 -5 3
-7 10 -4 15 4 5 -1 12 -9 15 -9 3 -16 10 -16 16 0 5 4 7 9 4 5 -3 11 6 14 21
5 26 4 26 -9 8 -8 -10 -23 -19 -34 -20 -11 -1 -23 -5 -27 -10 -5 -4 3 -4 17 0
20 6 23 5 13 -6 -15 -16 -17 -33 -3 -24 6 3 10 1 10 -6 0 -8 4 -8 13 -1 10 8
13 6 14 -8 1 -10 -5 -21 -13 -24 -12 -5 -13 -10 -3 -28 11 -20 10 -21 -3 -11
-8 7 -18 9 -23 5 -4 -4 -5 2 -1 14 4 14 2 21 -7 21 -19 0 -14 -37 8 -53 12 -9
14 -14 6 -14 -11 0 -11 -3 -1 -15 11 -14 7 -19 -12 -16 -5 0 -8 -5 -8 -12 0
-9 -3 -8 -9 2 -7 11 -10 9 -16 -8 -8 -27 3 -44 24 -36 11 4 13 3 5 -5 -14 -14
-68 -24 -60 -11 4 5 -1 17 -10 25 -16 17 -39 22 -30 7 3 -5 -2 -11 -12 -13
-11 -3 -19 0 -19 8 0 7 4 11 9 8 4 -3 8 -1 8 5 0 18 -20 23 -26 7 -7 -18 -44
-22 -44 -5 0 6 7 8 16 5 8 -3 13 -2 10 3 -11 17 -52 9 -53 -10 -1 -12 3 -17
10 -13 7 3 3 -2 -7 -10 -28 -23 -36 -20 -36 12 0 19 -3 23 -9 13 -9 -15 -3
-51 9 -51 4 0 10 -9 13 -21 4 -14 2 -19 -7 -16 -7 3 -19 1 -27 -4 -12 -8 -12
-10 0 -18 24 -16 97 20 84 42 -3 6 -1 7 6 3 8 -5 9 -12 2 -19 -5 -7 -11 -16
-13 -22 -3 -9 -21 -14 -65 -18 -13 -1 -23 -7 -23 -14 0 -7 -7 -10 -15 -7 -9 4
-15 0 -15 -9 0 -8 -8 -17 -18 -19 -11 -3 -19 0 -19 8 0 8 4 14 9 14 5 0 6 5 3
10 -3 6 4 10 18 10 32 0 40 10 20 25 -14 11 -12 13 15 23 36 12 43 23 11 17
-30 -6 -49 -24 -42 -41 6 -17 -13 -19 -23 -2 -4 7 -3 8 4 4 8 -5 10 -1 5 9 -4
11 -8 13 -12 6 -4 -6 -16 -18 -27 -26 -16 -13 -16 -14 -1 -9 13 5 16 2 11 -10
-3 -9 -15 -16 -26 -16 -14 0 -18 5 -14 16 3 8 2 13 -3 10 -13 -8 -34 21 -26
36 4 7 -4 0 -17 -16 -21 -25 -26 -27 -31 -13 -4 10 -3 24 0 34 4 11 3 14 -5 9
-7 -4 -12 -16 -12 -27 0 -11 -4 -18 -9 -15 -7 5 -8 -34 -1 -41 1 -2 3 -8 4
-15 0 -6 7 -13 14 -16 6 -2 10 2 9 10 -2 7 -2 10 0 6 8 -13 33 4 33 22 0 11 5
22 12 26 7 4 8 3 4 -5 -4 -6 0 -14 8 -17 9 -3 16 -14 17 -23 0 -10 2 -11 6 -3
2 6 11 12 19 12 12 0 12 -4 4 -20 -6 -11 -15 -18 -20 -15 -5 3 -12 0 -16 -6
-4 -8 -3 -9 4 -5 7 4 12 1 12 -8 0 -8 -9 -20 -20 -26 -11 -6 -20 -8 -20 -4 0
3 -6 2 -12 -4 -7 -6 -17 -10 -23 -10 -5 0 -11 -5 -13 -11 -4 -13 20 -15 34 -2
5 6 19 2 34 -11 l25 -21 -35 8 c-33 7 -34 6 -15 -9 18 -14 18 -15 3 -16 -19 0
-25 -25 -8 -33 6 -3 5 -4 -2 -3 -7 1 -14 13 -16 25 -2 14 -9 21 -17 17 -8 -3
-16 0 -19 7 -2 7 -5 4 -5 -7 -1 -12 -6 -16 -16 -12 -17 6 -20 -5 -5 -20 7 -7
6 -11 -4 -11 -8 0 -13 4 -10 9 3 4 0 8 -5 8 -6 0 -11 -5 -11 -11 0 -6 -10 -8
-22 -5 -13 3 -17 3 -10 0 17 -8 15 -25 -3 -18 -8 4 -15 3 -15 0 0 -4 10 -11
23 -16 18 -7 19 -9 3 -9 -12 -1 -16 -6 -12 -17 3 -9 6 -20 6 -25 0 -5 7 -9 16
-9 9 0 12 5 8 12 -5 8 -2 9 10 5 10 -4 21 -7 24 -7 4 0 -22 -14 -57 -31 -35
-17 -70 -28 -78 -25 -8 3 -12 2 -9 -2 2 -4 -17 -17 -42 -29 -138 -66 -245
-113 -257 -113 -8 0 -17 -4 -20 -10 -3 -5 -11 -10 -17 -10 -6 0 -5 7 3 18 13
15 12 16 -3 3 -15 -11 -22 -11 -43 3 -35 23 -40 20 -15 -11 l21 -27 -58 -24
c-68 -29 -178 -36 -193 -12 -5 8 -7 17 -5 20 2 4 -2 7 -10 7 -11 0 -12 -4 -4
-14 17 -20 -5 -16 -24 5 -31 34 -57 121 -57 189 0 97 56 368 109 533 35 108
32 150 -16 198 -22 23 -98 133 -153 222 -204 333 -303 688 -320 1150 l-7 195
-1 -150 c-6 -520 149 -1001 449 -1398 66 -88 73 -121 43 -193 -21 -49 -35
-102 -80 -294 -28 -120 -37 -178 -38 -255 -1 -93 1 -104 29 -155 23 -42 41
-61 75 -78 80 -42 103 -35 537 157 166 73 263 111 287 111 19 0 71 -16 114
-35 262 -115 525 -171 848 -182 212 -7 345 4 552 43 617 116 1181 517 1514
1076 152 255 245 508 299 815 27 151 37 481 20 644 -90 857 -654 1579 -1488
1905 -234 92 -487 141 -763 147 -91 3 -140 3 -110 1z m2048 -2483 c6 -1 12 -6
12 -12 0 -7 10 -20 22 -31 20 -17 35 -63 16 -52 -4 3 -8 3 -8 0 0 -2 -3 -13
-7 -23 -6 -15 -4 -16 8 -6 12 10 15 9 16 -5 1 -11 -6 -18 -18 -18 -17 0 -24
14 -20 39 1 4 -9 2 -21 -4 -22 -12 -22 -12 -3 -20 11 -4 14 -8 8 -8 -7 -1 -13
-9 -14 -18 0 -10 -5 -4 -10 12 -7 23 -5 33 6 41 12 9 9 11 -15 10 -31 -1 -38
-10 -19 -21 6 -4 8 -13 5 -20 -3 -8 0 -16 7 -18 7 -2 9 -8 5 -12 -4 -4 -14 -2
-23 5 -13 11 -15 9 -15 -11 0 -19 -2 -21 -10 -9 -17 26 -12 50 11 50 11 0 17
5 14 10 -9 14 -45 -6 -45 -25 0 -9 -6 -12 -15 -9 -12 5 -13 9 -4 20 18 22 4
27 -17 7 -12 -13 -19 -14 -22 -5 -2 6 -11 12 -19 12 -10 0 -13 6 -9 16 3 9 2
12 -5 9 -6 -4 -8 -13 -5 -21 9 -23 -23 -29 -39 -8 -23 31 -19 47 11 40 14 -4
23 -3 20 2 -10 16 48 0 62 -17 10 -13 12 -14 10 -1 -2 8 2 14 9 13 7 -2 10 3
7 11 -6 17 18 27 37 15 11 -7 11 -9 -3 -9 -10 0 -16 -7 -15 -18 0 -10 7 -19
14 -19 7 0 11 3 8 5 -6 7 25 42 37 42 5 0 6 -6 2 -12 -4 -7 -4 -10 1 -6 4 4
20 1 36 -7 26 -14 29 -14 39 5 9 16 8 20 -5 20 -8 0 -15 6 -16 13 0 6 -5 3
-10 -8 -8 -18 -8 -18 -6 5 1 18 -3 25 -18 28 -14 2 -16 0 -7 -6 9 -6 6 -12
-14 -21 -23 -10 -30 -9 -43 5 -9 9 -11 14 -4 10 8 -4 15 2 19 18 5 19 11 25
28 22 11 -3 27 -5 34 -5z"/>
<path d="M4405 7366 c-464 -156 -866 -449 -1166 -851 -242 -324 -414 -765
-433 -1110 -5 -96 -4 -93 20 85 39 293 149 590 321 869 279 451 721 806 1223
982 74 27 128 48 120 48 -8 0 -46 -10 -85 -23z"/>
<path d="M4251 5919 c-105 -32 -199 -139 -219 -249 -20 -108 16 -219 95 -297
135 -134 318 -134 454 -1 64 62 94 139 92 238 -1 90 -17 136 -71 204 -60 78
-125 109 -232 113 -47 1 -100 -2 -119 -8z m195 -14 c92 -27 174 -107 204 -199
7 -21 12 -66 12 -100 -1 -186 -144 -324 -327 -314 -80 4 -125 23 -189 79 -91
80 -129 224 -91 340 25 74 121 171 191 192 63 20 138 21 200 2z"/>
<path d="M5785 5920 c-58 -19 -139 -85 -172 -140 -62 -101 -65 -203 -12 -317
58 -122 193 -204 313 -189 116 15 215 87 269 195 28 57 32 76 31 141 -1 123
-62 228 -165 285 -47 25 -66 30 -144 32 -49 1 -103 -2 -120 -7z m254 -35 c103
-56 152 -138 159 -263 4 -77 2 -87 -27 -147 -99 -201 -347 -247 -499 -93 -58
58 -84 118 -90 205 -6 89 8 143 54 205 63 88 155 130 274 125 61 -3 86 -9 129
-32z"/>
<path d="M4246 4800 c-67 -21 -121 -108 -110 -180 10 -63 98 -191 169 -248
155 -124 258 -188 376 -231 100 -37 253 -70 359 -77 104 -6 305 8 365 26 165
49 217 68 258 92 26 15 50 28 53 28 3 0 25 14 49 30 24 17 50 29 57 28 7 -2
12 2 11 9 -2 6 19 28 46 47 27 20 77 66 112 104 35 37 67 66 71 65 4 -2 4 5 1
14 -4 11 -3 14 6 9 6 -4 11 -4 9 1 -1 4 6 32 15 61 13 43 14 63 6 103 -23 107
-153 161 -266 109 -24 -10 -43 -16 -43 -13 0 3 -7 0 -15 -7 -8 -7 -13 -16 -10
-20 8 -12 -135 -143 -211 -193 -134 -88 -319 -135 -484 -123 -93 6 -105 8
-199 32 -137 34 -226 89 -364 223 -105 102 -98 96 -136 109 -39 14 -83 14
-125 2z m108 -11 c28 -8 69 -39 147 -114 200 -191 355 -255 616 -255 251 0
403 65 606 258 86 82 112 101 152 111 79 20 147 -4 190 -66 55 -82 20 -180
-109 -308 -153 -153 -316 -246 -513 -296 -424 -107 -858 3 -1153 291 -93 91
-140 167 -140 228 0 72 36 122 107 148 47 16 49 16 97 3z"/>
<path d="M3837 3197 c4 -7 -1 -8 -13 -3 -10 4 -15 4 -12 0 11 -10 -21 -37 -37
-30 -8 3 -15 0 -15 -5 0 -7 11 -9 25 -7 17 4 25 1 25 -8 0 -8 -5 -14 -11 -14
-5 0 -8 -4 -4 -9 3 -5 1 -12 -5 -16 -5 -3 -10 2 -10 11 0 14 -3 15 -12 6 -7
-7 -17 -8 -29 -1 -14 7 -17 6 -13 -5 6 -15 67 -29 72 -15 2 4 10 5 19 2 12 -5
11 -9 -8 -19 -17 -8 -28 -9 -36 -2 -7 6 -20 8 -28 4 -16 -6 -55 13 -55 27 0 4
5 5 10 2 6 -3 10 1 10 9 0 23 -17 20 -25 -4 -6 -19 -7 -19 -32 -2 -26 16 -26
16 -16 -3 7 -11 21 -21 32 -21 37 -2 41 -4 41 -15 0 -5 -4 -8 -8 -5 -4 2 -8
-4 -9 -14 -1 -11 3 -23 9 -26 8 -5 9 -1 5 10 -5 12 0 19 18 26 25 9 58 4 51
-9 -2 -3 7 -7 20 -7 15 -1 22 2 17 10 -3 6 -1 6 8 -1 17 -17 30 -16 23 1 -6
15 33 29 42 15 3 -5 -1 -9 -9 -9 -18 0 -30 -27 -20 -43 3 -7 -3 -4 -14 6 -20
17 -21 17 -26 -3 -3 -13 -13 -20 -29 -19 -12 0 -17 3 -10 6 17 7 15 23 -3 23
-8 0 -15 6 -15 13 0 9 -3 8 -9 -2 -7 -11 -9 -11 -14 0 -4 9 -6 8 -6 -5 -1 -11
4 -16 13 -13 19 8 16 -44 -4 -60 -9 -7 -10 -13 -4 -13 6 0 17 7 24 15 13 16
35 21 26 6 -4 -5 7 -4 24 2 16 6 25 14 19 18 -7 4 -5 8 5 12 8 3 17 1 20 -6 3
-9 5 -9 5 1 2 21 4 26 23 46 9 10 15 23 12 27 -2 4 0 10 6 14 6 4 8 11 4 16
-4 6 -13 4 -24 -6 -11 -10 -25 -15 -32 -12 -9 4 -7 6 4 6 18 1 14 31 -4 31 -5
0 -7 -4 -4 -8 2 -4 -4 -8 -15 -8 -24 0 -24 5 -1 23 12 10 14 16 5 19 -7 3 -13
10 -13 15 0 6 4 8 8 5 4 -2 13 3 19 13 9 14 8 18 -3 18 -7 0 -10 -5 -7 -10z"/>
</g>
</svg>
